<svg id="Calque_2" data-name="Calque 2" xmlns="http://www.w3.org/2000/svg" viewBox="0 0 146 138.5"><defs><style>.cls-1{fill:#3c5262;}</style></defs><title>Sans titre - 1</title><path class="cls-1" d="M511,130s-2.5,3.5,0,6,6-1,6-1-3,2-5,0S511,131,511,130Z" transform="translate(-471 -65.5)"/><path class="cls-1" d="M527,145s-2.5,3.5,0,6,6-1,6-1-3,2-5,0S527,146,527,145Z" transform="translate(-471 -65.5)"/><path class="cls-1" d="M613.5,109.5s8,72-57,72c-9,0-22-2-26-6l-19,11,3-16c-2,0-9-7-9-10h-17l12-13s.35-9.36,5.74-17.06c-2.05-.82-5.41-2.22-4.62-2.25l5.14,1.55a23.34,23.34,0,0,1,3.65-3.88c-.94-1.11-4.69-5.58-3.82-5.14l4.56,4.56c3.7-2.84,8.66-4.78,15.35-4.78,15,0,15,11,35,11,6.12,0,10.74-1.69,14.21-4.29L580.5,132c1,.5-4-5.39-4-5.39h0a20.8,20.8,0,0,0,3.53-3.75l5.5,1.66c.83,0-3-1.6-5-2.4,3.9-5.76,5-12.92,5-17.63l12-12h-17c0-2-6-9-9-9l4-18-19,11S542.5,72,532,72c-35,0-61,33-61,63,0,35,29,69,70,69s76-30,76-76C617,121.5,613.5,109.5,613.5,109.5Zm-37.61,1.4c2.5,2.5,0,6,0,6,0-1,1-3-1-5s-5,0-5,0S573.39,108.4,575.89,110.9Zm-16-15c2.5,2.5,0,6,0,6,0-1,1-3-1-5s-5,0-5,0S557.39,93.4,559.89,95.9Z" transform="translate(-471 -65.5)"/></svg>